<svg data-v-0dd9719b="" version="1.0" xmlns="http://www.w3.org/2000/svg" xmlns:xlink="http://www.w3.org/1999/xlink" width="100%" height="100%" viewBox="0 0 340.000000 250.000000" preserveAspectRatio="xMidYMid meet" color-interpolation-filters="sRGB" style="margin: auto;"> <rect data-v-0dd9719b="" x="0" y="0" width="100%" height="100%" fill="#fff" fill-opacity="1" class="background"></rect> <rect data-v-0dd9719b="" x="0" y="0" width="100%" height="100%" fill="url(#watermark)" fill-opacity="1" class="watermarklayer"></rect> <g data-v-0dd9719b="" fill="#333" class="icon-text-wrapper icon-svg-group iconsvg" transform="translate(47.86499786462741,95.05240821838379)"><g class="iconsvg-imagesvg" transform="translate(0,0)"><g><rect fill="#333" fill-opacity="0" stroke-width="2" x="0" y="0" width="60" height="59.89518342899925" class="image-rect"></rect> <svg x="0" y="0" width="60" height="59.89518342899925" filtersec="colorsb5884407873" class="image-svg-svg primary" style="overflow: visible;"><svg xmlns="http://www.w3.org/2000/svg" viewBox="0.028017135336995125 0.01966051757335663 130.27294921875 130.0447235107422"><path d="M25.37 95.2c-2-.8-3.9-1.5-5.8-2.3a56.4 56.4 0 0 0 7.4 9.5 53.5 53.5 0 0 0 44.6 15.6c-.6-.3-1.3-.6-1.9-.9a10 10 0 0 1-1.4-.8 90.57 90.57 0 0 1-14.1-8.8 91.71 91.71 0 0 1-8.3-7.1h-.3a99.69 99.69 0 0 1-20.2-5.2zM22 57c1.3-2.7 2.7-5.3 4.3-8 1-1.7 2.1-3.3 3.2-4.9a78.68 78.68 0 0 1 9.6-11.3c1.5-1.5 3.2-2.9 4.9-4.3a76.36 76.36 0 0 1 11.9-7.8c.1 0 .2-.1.3-.1a100 100 0 0 1 19.5-7.7 1.27 1.27 0 0 1 .6-.1 53.73 53.73 0 0 0-39.9 7.3 82.93 82.93 0 0 1 8.7-.2 102.2 102.2 0 0 1 10.9.9 76.36 76.36 0 0 0-11.9 7.8 6.75 6.75 0 0 0-1.4-.2 97.28 97.28 0 0 0-14.3-.3c0 2 0 4.1.1 6.1.2 3.4.6 6.7 1.1 10-1.1 1.6-2.2 3.2-3.2 4.9A61.09 61.09 0 0 0 22 57a.37.37 0 0 0-.1-.3 99.12 99.12 0 0 1-1.3-20.9v-.3a53.31 53.31 0 0 0-6.4 45.2A96 96 0 0 1 17.77 67 106.39 106.39 0 0 1 22 57z" fill="none"></path><path d="M86.37 83.9a97.75 97.75 0 0 0 3.8-14.3 102.84 102.84 0 0 0 1.2-22.1 100 100 0 0 0-12.4-8 99.27 99.27 0 0 0-20.8-8c1.1-.8 2.3-1.6 3.5-2.4a93.36 93.36 0 0 1 8.7-5 85.66 85.66 0 0 1 13.7 5.6c1.9 1 3.7 2.1 5.6 3.3-.1-.5-.1-.8-.2-1.3a78.73 78.73 0 0 0-4.1-13.5c-1.9 0-3.9 1.1-5.8 1.8-3.1 1.3-6.2 2.6-9.1 4.1s-5.9 3.2-8.7 5c-1.2.8-2.4 1.6-3.5 2.4A86.7 86.7 0 0 0 47 40.9a105.63 105.63 0 0 0-14.1 17.3 97.6 97.6 0 0 0 5.4 13.7 106.45 106.45 0 0 0 12 18.7 89.87 89.87 0 0 0 14.8-.9 119.75 119.75 0 0 0 21.27-5.8zM25.07 72a90.57 90.57 0 0 0-4.9 13.5c2 .6 3.9 1.2 6 1.7 3.3.8 6.6 1.5 9.9 2a88.77 88.77 0 0 1-7.8-12.6 62.08 62.08 0 0 1-2.6-5.9 95.15 95.15 0 0 1 6.2-11.3 95.15 95.15 0 0 0-6.2 11.3c-.2.4-.4.8-.6 1.3zM88.37 16.9c-.5.1-1 .3-1.4.4.5-.1.9-.3 1.4-.4zM18.77 91.5c.4-1.7.8-3.5 1.2-5.2-.4 1.7-.8 3.4-1.2 5.2zM99.67 77.7A8.26 8.26 0 0 0 101 77a104 104 0 0 0 11.9-8.1c-1.2-1.7-2.5-3.3-3.8-4.9a96.18 96.18 0 0 0-6.8-7.4 82.64 82.64 0 0 1-1.1 14.8q-.63 3.15-1.53 6.3zM103.37 27.6a50.35 50.35 0 0 0-9.2-7.5 95.4 95.4 0 0 1 4.1 11.1 74.34 74.34 0 0 1 2.5 10.6l.2.2a98.8 98.8 0 0 1 13.3 16.1c1.4 2.1 2.6 4.2 3.8 6.2.1.2.3.5.4.7a51.58 51.58 0 0 0-2.6-16.4 51.21 51.21 0 0 0-12.5-21zM81 97a77.61 77.61 0 0 1-14.4 3.5c-2.1.3-4.3.5-6.5.6.4.3.7.7 1.1 1a90.81 90.81 0 0 0 11.4 8.8c1.2-1.7 2.4-3.4 3.5-5.2A92.5 92.5 0 0 0 81 97zM94.67 91c0 .1-.1.2-.1.3a98.62 98.62 0 0 1-11.2 17.7c-1.6 2-3.2 3.8-4.7 5.5.9.5 1.7.9 2.6 1.4a52.25 52.25 0 0 0 21.3-12.8 52.86 52.86 0 0 0 14.9-27.2c-.2-.4-.5-.8-.7-1.2A92.88 92.88 0 0 1 104 85.4a84.85 84.85 0 0 1-9.33 5.6z" fill="none"></path><path d="M94.17 20.1a47.09 47.09 0 0 0-5.8-3.2c-.5.1-1 .3-1.4.4a10.26 10.26 0 0 1 1.4-.4 48.72 48.72 0 0 0-12.2-4.1 1.27 1.27 0 0 1-.6.1 100 100 0 0 0-19.5 7.7c-.1 0-.2.1-.3.1 2.9.4 5.9.9 8.9 1.6 1.9.4 3.8 1 5.7 1.6a92.81 92.81 0 0 1 9.1-4c1.9-.8 3.8-1.8 5.8-1.8a78.73 78.73 0 0 1 4.1 13.5c.1.5.1.9.2 1.3a100.64 100.64 0 0 1 1.7 14.5 102.5 102.5 0 0 1-1.2 22.1 86.59 86.59 0 0 1-3.8 14.3 103.89 103.89 0 0 1-21.4 5.7 89.19 89.19 0 0 1-14.8.9A99.61 99.61 0 0 0 60 101.1c2.2-.1 4.3-.3 6.5-.6A77.61 77.61 0 0 0 80.87 97a75.26 75.26 0 0 1-5 8.7c-1.1 1.8-2.3 3.5-3.5 5.2 1.9 1.3 4 2.5 6 3.6 1.6-1.8 3.1-3.6 4.7-5.5a98.62 98.62 0 0 0 11.2-17.7.37.37 0 0 0 .1-.3 72.2 72.2 0 0 0 9.3-5.7 91.77 91.77 0 0 0 12.8-10.7q-1.8-2.85-3.9-5.7a104 104 0 0 1-11.9 8.1 8.26 8.26 0 0 0-1.3.7 47.46 47.46 0 0 0 1.4-6.3 82 82 0 0 0 1.1-14.8 58.28 58.28 0 0 0-.3-5.9q-.45-4.65-1.2-9a90.92 90.92 0 0 0-2.5-10.6 56.9 56.9 0 0 0-3.7-11z" fill="#e24301"></path><path d="M46.87 40.8a106.27 106.27 0 0 1 11.3-9.4A96.39 96.39 0 0 0 44 28.6c-1.7 1.4-3.3 2.8-4.9 4.3a78.68 78.68 0 0 0-9.6 11.3c-1.1 1.6-2.2 3.2-3.2 4.9a88.3 88.3 0 0 0-4.3 8 97.89 97.89 0 0 0-4.2 10.1 96 96 0 0 0-3.6 13.7c.1.2.1.5.2.7a47.94 47.94 0 0 0 4.5 10.1c.4-1.7.8-3.5 1.2-5.2-.4 1.7-.8 3.4-1.2 5.2.3.4.5.9.8 1.3 1.9.8 3.8 1.6 5.8 2.3a100.65 100.65 0 0 0 20.3 5.2h.3c-2.1-2.1-4.2-4.2-6.2-6.6-1.3-1.5-2.5-3-3.7-4.6-3.3-.5-6.6-1.2-9.9-2-2-.5-4-1.1-6-1.7a86.68 86.68 0 0 1 4.9-13.5c.2-.4.4-.8.6-1.3a96.55 96.55 0 0 1 6.4-11.3c.3-.5 0-.9 1-1.4H33a96.75 96.75 0 0 1 13.87-17.3z" fill="#e24301"></path><path d="M70.47 24a93.36 93.36 0 0 0-8.7 5c-1.2.8-2.4 1.6-3.5 2.4a107.53 107.53 0 0 1 20.8 8 93.11 93.11 0 0 1 12.4 8 100.64 100.64 0 0 0-1.7-14.5 63.17 63.17 0 0 0-5.6-3.3 80.51 80.51 0 0 0-13.7-5.6z" fill="#00a896"></path><path d="M58.17 31.4c1.1-.8 2.3-1.6 3.5-2.4a93.36 93.36 0 0 1 8.7-5c-1.9-.6-3.8-1.1-5.7-1.6-3-.7-6-1.2-8.9-1.6a76.36 76.36 0 0 0-11.9 7.8 92.79 92.79 0 0 1 14.3 2.8z" fill="#00a896"></path><path d="M127.07 45a63.38 63.38 0 0 0-15.5-25.5A65.1 65.1 0 0 0 3.17 85.1a63.38 63.38 0 0 0 15.5 25.5 65.16 65.16 0 0 0 92 .9 64.51 64.51 0 0 0 16.4-66.5zm-8.9 19.3c-1.2-2-2.5-4.1-3.8-6.2a95.58 95.58 0 0 0-13.3-16.1c-.1-.1-.2-.1-.2-.2q.75 4.35 1.2 9c.2 2 .2 3.9.3 5.9 2.3 2.3 4.6 4.8 6.8 7.4 1.3 1.6 2.6 3.2 3.8 4.9q2.1 2.85 3.9 5.7a7.46 7.46 0 0 1 .7 1.2 53.19 53.19 0 0 1-14.9 27.2 54.06 54.06 0 0 1-21.3 12.8c-.9-.5-1.8-.9-2.6-1.4q-3.15-1.8-6-3.6a90.81 90.81 0 0 1-11.4-8.8c-.4-.3-.7-.7-1.1-1a91 91 0 0 1-9.9-10.7 103.46 103.46 0 0 1-11.8-18.7 57.89 57.89 0 0 1-5.2-13.7c-1 .4-.8.9-1 1.4a95.84 95.84 0 0 0-6.3 11.3c.8 2 1.6 4 2.5 5.9a80 80 0 0 0 7.7 12.6c1.2 1.6 2.4 3.1 3.7 4.6 2 2.3 4.1 4.5 6.2 6.6a78.06 78.06 0 0 0 8.3 7.1 90.57 90.57 0 0 0 14.1 8.8 10 10 0 0 1 1.4.8c.7.3 1.3.6 1.9.9a53.4 53.4 0 0 1-44.6-15.6 47.7 47.7 0 0 1-7.4-9.5c-.3-.4-.5-.9-.8-1.3a57.46 57.46 0 0 1-4.5-10.1c-.1-.2-.1-.5-.2-.7a52.94 52.94 0 0 1 6.5-45.2v.3a99.12 99.12 0 0 0 1.3 20.9.37.37 0 0 0 .1.3c1.3-2.7 2.7-5.3 4.3-8 1-1.7 2.1-3.3 3.2-4.9-.5-3.3-.9-6.6-1.1-10-.1-2-.1-4.1-.1-6.1a97.28 97.28 0 0 1 14.3.3 6.75 6.75 0 0 0 1.4.2 76.36 76.36 0 0 1 11.9-7.8 102.2 102.2 0 0 0-10.9-.9 82.93 82.93 0 0 0-8.7.2 53.93 53.93 0 0 1 52.1-3.2 47.09 47.09 0 0 1 5.8 3.2 50.35 50.35 0 0 1 9.2 7.5 52.75 52.75 0 0 1 12.7 21A55 55 0 0 1 119 65a1.42 1.42 0 0 1-.83-.7z" fill="#00a896"></path></svg></svg> <!----></g></g> <g transform="translate(67,9.047590255737305)"><g data-gra="path-name" fill-rule="" class="tp-name iconsvg-namesvg"><g transform="scale(1)"><g><path d="M41.35 0L29.34 0 27.34-7.62 14.13-7.62 12.07 0 0 0 13.26-40.82 27.92-40.82 41.35 0ZM16.41-16.63L25.05-16.63 23.3-23.3Q22.69-25.53 21.82-29.06 20.94-32.59 20.66-34.12L20.66-34.12Q20.41-32.7 19.67-29.45 18.94-26.19 16.41-16.63L16.41-16.63ZM72.33-12.35L72.33-12.35Q72.33-8.56 70.41-5.63 68.49-2.7 64.88-1.07 61.26 0.56 56.39 0.56L56.39 0.56Q52.33 0.56 49.58-0.01 46.83-0.58 43.85-2L43.85-2 43.85-11.79Q47-10.18 50.39-9.27 53.78-8.37 56.62-8.37L56.62-8.37Q59.06-8.37 60.2-9.22 61.34-10.07 61.34-11.4L61.34-11.4Q61.34-12.24 60.89-12.86 60.43-13.49 59.41-14.13 58.4-14.77 54-16.74L54-16.74Q50.03-18.55 48.04-20.24 46.05-21.94 45.09-24.14 44.13-26.33 44.13-29.34L44.13-29.34Q44.13-34.95 48.22-38.1 52.31-41.24 59.45-41.24L59.45-41.24Q65.77-41.24 72.33-38.32L72.33-38.32 68.96-29.84Q63.26-32.45 59.12-32.45L59.12-32.45Q56.98-32.45 56-31.7 55.03-30.95 55.03-29.84L55.03-29.84Q55.03-28.64 56.27-27.7 57.51-26.75 62.98-24.25L62.98-24.25Q68.24-21.88 70.28-19.17 72.33-16.46 72.33-12.35ZM108.12-27.72L108.12-27.72Q108.12-20.91 104.1-17.2 100.08-13.49 92.68-13.49L92.68-13.49 89.6-13.49 89.6 0 78.61 0 78.61-40.66 92.68-40.66Q100.39-40.66 104.25-37.29 108.12-33.93 108.12-27.72ZM89.6-31.78L89.6-22.44 91.6-22.44Q94.07-22.44 95.53-23.83 96.99-25.22 96.99-27.67L96.99-27.67Q96.99-31.78 92.43-31.78L92.43-31.78 89.6-31.78ZM128.36-14.79L125.58-14.79 125.58 0 114.6 0 114.6-40.66 127.92-40.66Q144.49-40.66 144.49-28.64L144.49-28.64Q144.49-21.58 137.59-17.71L137.59-17.71 149.44 0 136.98 0 128.36-14.79ZM125.58-32.34L125.58-23.05 127.64-23.05Q133.39-23.05 133.39-28.14L133.39-28.14Q133.39-32.34 127.75-32.34L127.75-32.34 125.58-32.34ZM177.27-8.95L177.27 0 153.14 0 153.14-40.66 177.27-40.66 177.27-31.84 164.12-31.84 164.12-25.44 176.3-25.44 176.3-16.63 164.12-16.63 164.12-8.95 177.27-8.95Z" transform="translate(0, 41.2400016784668)"></path></g> <!----> <!----> <!----> <!----> <!----> <!----> <!----></g></g> <!----></g></g><defs v-gra="od"></defs></svg>